<?xml version="1.0" encoding="UTF-8"?><!DOCTYPE svg PUBLIC "-//W3C//DTD SVG 1.1//EN" "http://www.w3.org/Graphics/SVG/1.1/DTD/svg11.dtd"><svg xmlns="http://www.w3.org/2000/svg"><symbol id="icon-quality" viewBox="0 0 20 20">
    <title>Quality icon</title>
    <desc>A theatre seat shape.</desc>
    <polygon points="10.142,3.371 11.07,5.251 13.143,5.551 11.643,7.015 11.996,9.078 10.142,8.103 8.288,9.078 8.642,7.015 7.142,5.551 9.214,5.251"/>
    <path d="M18.5,7h-2c-0.176,0-0.343,0.036-0.5,0.092V5.003c0.009-1.524-0.416-2.729-1.262-3.58 C13.799,0.479,12.373,0,10.5,0h-1C7.627,0,6.201,0.479,5.262,1.423C4.416,2.274,3.991,3.479,4,5v2.092C3.843,7.036,3.676,7,3.5,7 h-2C0.673,7,0,7.673,0,8.5S0.673,10,1.5,10H2v8.5C2,19.327,2.673,20,3.5,20S5,19.327,5,18.5V16h10v2.5c0,0.827,0.673,1.5,1.5,1.5 s1.5-0.673,1.5-1.5V10h0.5c0.827,0,1.5-0.673,1.5-1.5S19.327,7,18.5,7z M5,4.997C4.993,3.749,5.32,2.784,5.971,2.128 C6.716,1.38,7.903,1,9.5,1h1c1.598,0,2.784,0.38,3.529,1.128C14.68,2.784,15.008,3.749,15,5v3.5v3.346 c-4.036-1.195-7.815-0.572-10,0.035V8.5V4.997z M18.5,9H17v9.5c0,0.275-0.225,0.5-0.5,0.5S16,18.775,16,18.5V15H4v3.5 C4,18.775,3.776,19,3.5,19S3,18.775,3,18.5V9H1.5C1.224,9,1,8.776,1,8.5S1.224,8,1.5,8h2C3.776,8,4,8.224,4,8.5v4.757 c0.251-0.091,0.587-0.2,1-0.321c2.056-0.596,5.939-1.324,10-0.043c0.333,0.104,0.666,0.228,1,0.36V8.5C16,8.224,16.225,8,16.5,8 h2C18.775,8,19,8.224,19,8.5S18.775,9,18.5,9z"/>
</symbol><symbol id="icon-price" viewBox="0 0 10 20">
    <title>Price icon</title>
    <desc>A dollar symbol.</desc>
    <path d="M10,13.844c0-2.044-1.114-3.238-4-4.28V2.903c1.046,0.214,1.946,0.806,2.555,1.709l0.946-0.636 C8.678,2.831,7.5,2.16,6,1.958V0H5v1.887c-2.78,0.004-4.72,1.619-4.72,3.93c0,2.155,1.301,3.413,4.638,4.484 c0.03,0.01,0.053,0.02,0.083,0.029v6.853c-0.035,0-0.064,0.008-0.099,0.008c-1.865,0-3.126-0.648-3.956-2.036L0,15.79 c1.01,1.585,2.549,2.324,4.827,2.324c0.062,0,0.112-0.013,0.173-0.014V20h1v-1.979C8.736,17.589,10,15.658,10,13.844z M1.501,5.851C1.501,3.982,2.81,2.859,5,2.817v6.387C2.412,8.291,1.501,7.414,1.501,5.851z M6,17.065v-6.378 c2.048,0.811,2.78,1.717,2.78,3.292C8.78,15.324,7.821,16.671,6,17.065z"/>
</symbol><symbol id="icon-arrow" viewBox="0 0 11 16">
    <title>Up Arrow icon</title>
    <desc>Arrow shape pointing up.</desc>
    <path d="M5,16L6 16 6 2.103 10.264 7.006 11 6.348 5.459 0 0 6.32 0.773 6.974 5 2.1 z"></path>
</symbol><symbol id="icon-ada" viewBox="0 0 16 16">
  <title>
      ADA Icon
  </title>
  <desc>
      Icon to indicate accessible seating
  </desc>
  <circle fill="" cx="8" cy="8" r="8"/>
  <path fill="currentColor" d="M9.812 8.77c.358.85.72 1.697 1.082 2.544l.045.102.085-.03 1.372-.54c.02-.008.044-.013.066-.02v-.016c-.08-.183-.16-.363-.24-.55-.28.103-.56.203-.847.306a1.11 1.11 0 0 1-.038-.08c-.353-.813-.706-1.627-1.056-2.442-.025-.06-.055-.08-.12-.078-.823.007-1.647.01-2.472.016a.7.7 0 0 1-.075-.004l-.038-.487h1.9v-.72h-1.97l-.09-1.558c.047-.01.088-.017.127-.028a.776.776 0 0 0 .57-.782.775.775 0 0 0-.616-.72l-.06-.017H7.25l-.082.022a.778.778 0 0 0-.547 1.025c.034.088.055.185.062.28.064.876.126 1.752.188 2.628.022.328.047.654.065.98.005.073.026.093.097.092.885-.002 1.77 0 2.653-.003.068-.002.1.016.127.08z"/>
  <path fill="currentColor" d="M4.878 9.252v.47c.004.02.012.042.013.062a2.85 2.85 0 0 0 2.227 2.49c.105.024.215.04.32.06h.55c.16-.03.32-.052.477-.097a2.87 2.87 0 0 0 1.77-1.397.132.132 0 0 0 .004-.137c-.146-.287-.285-.577-.426-.866a4.286 4.286 0 0 1-.04-.078c-.025.102-.043.195-.068.286a2.08 2.08 0 0 1-2.1 1.518c-1-.044-1.864-.867-1.943-1.87-.062-.8.24-1.44.89-1.914.022-.016.047-.048.046-.07-.017-.262-.038-.523-.06-.796-.03.012-.056.02-.08.033C5.55 7.43 5.026 8.18 4.893 9.2c-.003.017-.01.033-.015.052z"/>
</symbol><symbol id="icon-expand" viewBox="0 0 20 20">
  <title>Expand icon</title>
  <desc>Icon to expand</desc>
  <path d="M7.09 12.08L1.57 17.6l.86.4v-4.83a.77.77 0 1 0-1.54 0v5.44a.77.77 0 0 0 .77.77h5.43a.77.77 0 1 0 0-1.54H2.31l.35.85 5.52-5.52a.77.77 0 0 0-.55-1.32v1a.23.23 0 0 1-.16-.39L2 18l-.85.85h6a.23.23 0 0 1 0-.46H1.66a.23.23 0 0 1 .23.23v-5.45a.23.23 0 0 1-.46 0v6l.85-.85 5.52-5.53a.23.23 0 0 1-.16.07v-1a.77.77 0 0 0-.55.22zM13.67.38a.77.77 0 0 0 0 1.54h4.78l-.35-.85-5.52 5.52a.77.77 0 1 0 1.09 1.09l5.52-5.52-.85-.35v4.78a.77.77 0 1 0 1.54 0V1.16a.77.77 0 0 0-.77-.78v1a.23.23 0 0 1-.23-.23v5.44a.23.23 0 0 1 .46 0v-6l-.85.85L13 7a.23.23 0 0 1 .32.32l5.52-5.52.85-.85h-6a.23.23 0 1 1 0 .46h5.44v-1h-5.46z"/>
</symbol>
  <symbol id="icon-redirect" viewBox="0 0 14 13">
    <title>Redirect icon</title>
    <g stroke="#FFF" fill="#FEFEFE" fill-rule="evenodd">
      <path d="M4.044 11.928c-1.61 0-2.92-1.382-2.92-3.08V4.12c0-1.698 1.31-3.08 2.92-3.08H6.82v.88H4.045c-1.137 0-2.063.988-2.063 2.2V8.85c0 1.213.927 2.2 2.064 2.2h5.554c1.137 0 2.063-.987 2.063-2.2V7.673h.858v1.175c0 1.698-1.31 3.08-2.92 3.08H4.044z" stroke-width=".5"/>
      <path stroke-width=".75" d="M8.257 5.896l-.274-.312 4.23-3.906-2.66.046-.002-.415L13 1.255l-.43 3.482-.41-.058.327-2.69z"/>
    </g>
  </symbol>
  <symbol id="icon-pawprint" viewBox="0 0 20 20">
    <title>Pawprint icon</title>
    <path d="M14.83 12.977l.084.082c1.568 1.5 2.136 2.413 1.902 4.125-.3 1.376-1.263 2.45-2.53 2.788-.332.07-.642 0-1.133-.182-.19-.07-.968-.387-1.142-.454-.957-.37-1.71-.56-2.43-.56h-.144c-.708 0-1.43.187-2.347.557-.163.065-.92.386-1.105.458-.483.187-.796.258-1.153.176-1.25-.323-2.226-1.41-2.533-2.883-.21-1.584.398-2.588 1.92-4.087.29-.282.423-.414.553-.547.104-.107.193-.202.238-.25.23-.29.4-.586.647-1.103l.084-.176c.358-.75.555-1.11.87-1.513.46-.653 1.064-1.162 1.78-1.49.13-.053.266-.095.422-.126.263-.046.53-.065.75-.056.247-.006.495.008.783.05.137.03.272.07.428.135.692.313 1.297.824 1.725 1.44.35.444.578.853.947 1.625l.047.1c.318.665.48.96.7 1.252.16.177.33.345.637.64zm-2.062-6.822c-1.118 0-2.024-1.378-2.024-3.078S11.122 0 12.768 0c1.645 0 2.023 1.378 2.023 3.077 0 1.7-.905 3.078-2.022 3.078zm5.21 3.914c-1.118 0-2.024-1.217-2.024-2.717s.906-2.715 2.023-2.715S20 5.854 20 7.353c0 1.5-.906 2.716-2.023 2.716zM6.817 6.68c-1.12 0-2.024-1.378-2.024-3.077 0-1.7.377-3.078 2.023-3.078 1.645 0 2.023 1.378 2.023 3.078S7.934 6.68 6.817 6.68zm-4.795 4.776C.906 11.456 0 10.24 0 8.74c0-1.5.906-2.714 2.023-2.714S4.046 7.24 4.046 8.74c0 1.5-.906 2.716-2.023 2.716z" fill-rule="nonzero" fill="#768692"/>
  </symbol>
  <symbol id="icon-diamond" viewBox="0 0 29 25">
    <title>
      platinum
    </title>
    <path d="M5.47 0L5 .625.623 6.875 0 7.813l.623.78L12.97 23.75 14.06 25l1.094-1.25L27.498 8.594l.627-.78-.627-.94L23.123.47 22.656 0H5.47zm7.343 1.25h2.5l3.437 5.625H9.375l3.438-5.625zm4.374.156h4.843l3.906 5.47h-5.31l-3.44-5.47zm-11.093 0h4.843L7.5 6.876H2.186l3.908-5.47zM20.31 8.438h5.47l-10.155 12.5 4.686-12.5zm-10.78 0h9.065l-4.532 12.187L9.53 8.437zm-7.186 0h5.47l4.686 12.5L2.344 8.44z" fill="#69747C" fill-rule="evenodd"/>
  </symbol>
  <symbol id="bullhorn" viewBox="0 0 20 20">
    <path d="M19.389 3.099c-0.578-1.735-1.346-2.099-1.889-2.099-0.011 0-0.023 0-0.035 0.001-0.553 0.012-1.536 0.299-3.008 0.731-3.084 0.903-7.744 2.269-12.458 2.269-1.14 0-2 1.505-2 3.5s0.86 3.5 2 3.5c0.369 0 0.738 0.008 1.105 0.024l1.666 6.628c0.19 0.756 0.949 1.348 1.729 1.348h1.313c0.433 0 0.801-0.18 1.008-0.495s0.229-0.723 0.060-1.121l-2.577-6.048c3.136 0.462 6.022 1.308 8.154 1.932 1.472 0.431 2.455 0.719 3.008 0.731 0.012 0 0.023 0.001 0.035 0.001 0.542 0 1.31-0.364 1.889-2.099 0.394-1.183 0.611-2.746 0.611-4.401s-0.217-3.218-0.611-4.401zM16 7.5c0-0.513 0.022-1.015 0.064-1.496 0.513 0.052 0.936 0.716 0.936 1.496s-0.422 1.445-0.936 1.496c-0.042-0.481-0.064-0.983-0.064-1.496zM1 7.5c0-1.526 0.592-2.5 1-2.5 1.135 0 2.264-0.076 3.368-0.204-0.237 0.758-0.368 1.697-0.368 2.704s0.13 1.946 0.368 2.704c-1.104-0.128-2.233-0.204-3.368-0.204-0.408 0-1-0.974-1-2.5zM7.961 17.776c0.041 0.096 0.038 0.16 0.026 0.178s-0.069 0.046-0.174 0.046h-1.313c-0.319 0-0.681-0.282-0.759-0.592l-1.588-6.319c0.335 0.027 0.669 0.059 1 0.097l2.808 6.59zM6.489 10.353c-0.304-0.687-0.489-1.748-0.489-2.853 0-1.122 0.18-2.163 0.488-2.852 3.185-0.473 6.096-1.325 8.25-1.957 0.415-0.122 0.811-0.238 1.171-0.339-0.103 0.215-0.203 0.463-0.298 0.747-0.394 1.183-0.611 2.746-0.611 4.401s0.217 3.218 0.611 4.401c0.095 0.284 0.195 0.532 0.298 0.747-0.36-0.101-0.756-0.217-1.171-0.339-2.155-0.631-5.065-1.484-8.25-1.957zM18.44 11.585c-0.373 1.12-0.778 1.415-0.94 1.415s-0.567-0.296-0.94-1.415c-0.157-0.47-0.283-1.009-0.375-1.596 0.486-0.056 0.943-0.331 1.276-0.775 0.348-0.464 0.539-1.073 0.539-1.714s-0.192-1.251-0.539-1.714c-0.333-0.444-0.79-0.719-1.276-0.775 0.093-0.586 0.219-1.126 0.375-1.596 0.373-1.12 0.778-1.416 0.94-1.416s0.567 0.296 0.94 1.415c0.361 1.084 0.56 2.534 0.56 4.085s-0.199 3.001-0.56 4.085z"></path>
  </symbol><symbol id="get-directions" viewBox="0 0 14 15">
      <title>Get Directions Icon</title>
      <desc>Icon for requesting google map directions of a venue.</desc>
      <path fill="" fill-rule="evenodd" d="M13.651.697c.096 0 .178.034.246.103a.344.344 0 0 1 .103.253v3.5a.336.336 0 0 1-.103.246.336.336 0 0 1-.246.102.336.336 0 0 1-.246-.102.336.336 0 0 1-.102-.246V1.92L5.496 9.7a.35.35 0 0 1-.595-.25.34.34 0 0 1 .103-.25l7.827-7.8h-2.68a.336.336 0 0 1-.246-.102.336.336 0 0 1-.102-.246c0-.1.034-.185.102-.253a.336.336 0 0 1 .246-.103h3.5zm-2.098 14h-10.5c-.292 0-.54-.102-.745-.307A1.007 1.007 0 0 1 0 13.65v-10.5c0-.291.103-.54.308-.745.205-.205.453-.307.745-.307h7c.095 0 .177.034.246.102.068.069.102.15.102.246 0 .1-.034.185-.102.253a.336.336 0 0 1-.246.103h-7c-.1 0-.185.034-.253.102a.336.336 0 0 0-.103.246v10.5c0 .096.034.178.103.246a.344.344 0 0 0 .253.103h10.5a.336.336 0 0 0 .246-.103.336.336 0 0 0 .102-.246v-7c0-.095.035-.177.103-.246a.336.336 0 0 1 .246-.102c.096 0 .178.034.246.102.068.069.103.15.103.246v7c0 .287-.103.534-.308.739a1.007 1.007 0 0 1-.738.307z"/>
  </symbol>
</svg>
