<?xml version="1.0" encoding="UTF-8"?><!DOCTYPE svg PUBLIC "-//W3C//DTD SVG 1.1//EN" "http://www.w3.org/Graphics/SVG/1.1/DTD/svg11.dtd">
<svg xmlns="http://www.w3.org/2000/svg">
    <symbol id="icon-login" viewBox="0 0 24 24">
        <title>
            Login
        </title>
        <path fill="" d="M23 12c0-6.075-4.925-11-11-11S1 5.925 1 12c0 3.669 1.803 6.91 4.564 8.908l.007.006v-.001a10.94 10.94 0 0 0 12.857.001l.002-.002C21.193 18.914 23 15.672 23 12zM2 12C2 6.486 6.486 2 12 2s10 4.486 10 10a9.948 9.948 0 0 1-2.617 6.721 7.512 7.512 0 0 0-5.107-5.859C15.6 12.077 16.5 10.648 16.5 9c0-2.481-2.02-4.5-4.5-4.5A4.505 4.505 0 0 0 7.5 9c0 1.648.9 3.077 2.225 3.859a7.525 7.525 0 0 0-5.108 5.861A9.944 9.944 0 0 1 2 12zm10 .5c-1.93 0-3.5-1.57-3.5-3.5s1.57-3.5 3.5-3.5 3.5 1.57 3.5 3.5-1.57 3.5-3.5 3.5zm-6.48 7.102C5.728 16.204 8.55 13.5 12 13.5c3.449 0 6.271 2.703 6.479 6.102v.002A9.95 9.95 0 0 1 12 22a9.946 9.946 0 0 1-6.48-2.398z"/>
    </symbol>
    <symbol id="icon-sell" viewBox="0 0 24 24">
        <title>sell</title>
        <path fill="" d="M20.26 15.916h.001a.593.593 0 0 1 .238.79c-1.588 3.074-4.685 4.982-8.08 4.982-2.44 0-4.735-.971-6.46-2.735a9.382 9.382 0 0 1-2.673-6.37l-1.312 1.342a.562.562 0 0 1-.807 0 .594.594 0 0 1 0-.826l2.284-2.336a.564.564 0 0 1 .807 0L6.54 13.1c.223.228.223.6 0 .826a.567.567 0 0 1-.808 0L4.428 12.59c.128 4.394 3.663 7.93 7.99 7.93 2.971 0 5.68-1.67 7.07-4.361a.565.565 0 0 1 .772-.243zm3.408-5.153h.002a.594.594 0 0 1 0 .826l-2.284 2.336a.566.566 0 0 1-.808 0l-2.284-2.336a.594.594 0 0 1 0-.826.562.562 0 0 1 .807 0l1.305 1.335c-.128-4.394-3.663-7.93-7.989-7.93-2.972 0-5.682 1.67-7.071 4.362a.565.565 0 0 1-.772.243.593.593 0 0 1-.237-.791C5.925 4.909 9.02 3 12.417 3c2.44 0 4.734.972 6.46 2.736a9.382 9.382 0 0 1 2.672 6.368l1.312-1.34a.562.562 0 0 1 .807 0z"/>
    </symbol>
</svg>
